<?xml version="1.0"?>
<svg xmlns="http://www.w3.org/2000/svg" xmlns:xlink="http://www.w3.org/1999/xlink" version="1.1" id="Capa_1" x="0px" y="0px" viewBox="0 0 512 512" style="enable-background:new 0 0 512 512;" xml:space="preserve" width="512px" height="512px" class=""><g><path style="fill:#D7D5CB" d="M512,256c0,141.44-114.72,256-256,256C114.56,512,0,397.44,0,256C0,114.72,114.56,0,256,0  C397.28,0,512,114.72,512,256z" data-original="#FFD93B" class="" data-old_color="#FFD93B"/><path style="fill:#BDBAB0" d="M512,256c0,141.44-114.72,256-256,256c-80.64,0-152.64-37.28-199.36-95.52  c43.84,35.2,99.36,56.16,160,56.16c141.28,0,256-114.56,256-256c0-60.64-20.96-116.16-56.32-160C474.72,103.52,512,175.36,512,256z" data-original="#F4C534" class="" data-old_color="#F4C534"/><path style="fill:#FFFFFF;" d="M445.264,228.96c-0.016,0.096-0.016,0.176-0.032,0.256c-4.752,38.544-35.312,72.992-91.152,68.768  c-10.608-0.8-28.176-3.488-45.216-18.816c-29.76-26.736-47.024-97.024,13.648-116.16c22.4-7.072,50.304-8.16,73.856-3.216  C428.128,166.448,449.232,196.752,445.264,228.96z" data-original="#FFFFFF" class=""/><path style="fill:#625D5D" d="M258.272,187.376c4.784,0.208,8.256,4.56,7.536,9.296c-0.032,0.224-0.064,0.448-0.096,0.656  c-7.888,59.952,32.032,94.4,32.032,94.4c34,29.44,75.888,22.768,83.488,21.408c7.888-1.36,37.792-7.136,59.04-33.392  c20.496-25.504,22.32-57.376,21.712-64.208c-0.16-3.344,0-5.616,0.304-10.32c0.608-8.8,1.824-10.784,3.184-11.84  c2.128-1.824,3.792-0.752,6.672-2.576h0.16c1.968-1.36,3.04-3.648,3.04-6.064v-19.424c0-2.88-1.664-5.456-4.4-6.672  c-23.376-10.32-44.48-15.936-60.72-18.976c-33.856-6.192-66.224-9.12-101.984,6.576c-16.368,7.184-34.08,10.64-51.952,10.56  c-0.096,0-0.192,0-0.288,0c-0.144,0-0.272,0-0.416,0c-17.76,0.112-35.408-3.328-51.664-10.496  c-34.896-15.376-66.864-13.056-101.984-6.656c-16.4,3.04-37.344,8.656-60.864,18.976c-2.576,1.216-4.4,3.792-4.4,6.672v19.424  c0,2.432,1.216,4.704,3.184,6.064c2.88,1.824,4.704,0.752,6.832,2.576c1.216,1.056,2.576,3.04,3.184,11.84  c0.304,4.704,0.448,6.976,0.144,10.32c-0.608,6.832,1.216,38.704,21.856,64.208c21.088,26.256,50.992,32.032,59.04,33.392  c7.584,1.36,49.328,8.048,83.488-21.408c0,0,39.92-34.448,31.872-94.4c-0.032-0.224-0.064-0.432-0.096-0.656  c-0.64-4.496,2.512-8.688,7.024-9.152C254.912,187.36,256.592,187.312,258.272,187.376z M203.184,279.136  c-17.008,15.328-34.608,18.064-45.072,18.816c-55.856,4.256-86.512-30.208-91.216-68.752c0,0,0-0.144,0-0.304  c-3.952-32.176,17.152-62.384,48.88-69.056c23.52-5.008,51.456-3.952,73.92,3.184C250.224,182.144,232.928,252.416,203.184,279.136z   M445.28,228.896c0,0.16,0,0.304,0,0.304c-4.864,38.56-35.36,73.008-91.216,68.752c-10.624-0.752-28.08-3.488-45.232-18.816  c-29.744-26.72-47.056-96.992,13.664-116.112c22.464-7.136,50.384-8.192,73.92-3.184C428.128,166.512,449.216,196.72,445.28,228.896  z" data-original="#E24B4B" class="active-path" data-old_color="#E24B4B"/><path style="fill:#FFFFFF;" d="M115.744,159.808c23.552-4.944,51.456-3.856,73.856,3.216c60.672,19.136,43.408,89.424,13.648,116.16  C186.208,294.512,168.64,297.2,158.032,298c-55.84,4.224-86.4-30.224-91.152-68.768c-0.016-0.08-0.016-0.176-0.032-0.256  C62.88,196.752,83.984,166.448,115.744,159.808z" data-original="#FFFFFF" class=""/><circle style="fill:#3E4347;" cx="170.288" cy="227.552" r="40.288" data-original="#3E4347" class=""/><path style="fill:#5A5F63;" d="M193.152,221.936c-3.072,1.824-7.776-0.448-10.576-5.12c-2.944-4.672-2.848-10.016,0.224-11.84  c3.072-1.824,7.776,0.448,10.72,5.104C196.32,214.752,196.224,220.112,193.152,221.936z" data-original="#5A5F63" class=""/><circle style="fill:#3E4347;" cx="341.728" cy="227.552" r="40.288" data-original="#3E4347" class=""/><path style="fill:#5A5F63;" d="M364.592,221.936c-3.072,1.824-7.776-0.448-10.576-5.12c-2.944-4.672-2.848-10.016,0.224-11.84  c3.072-1.824,7.776,0.448,10.72,5.104C367.76,214.752,367.664,220.112,364.592,221.936z" data-original="#5A5F63" class=""/><path style="fill:#3E4347;" d="M161.072,344.272c-10.24-4.336-20.096,6.848-14.352,16.384  c18.928,31.456,62.88,53.504,114.176,53.504c51.28,0,95.232-22.048,114.176-53.504c5.744-9.536-4.112-20.72-14.368-16.384  C294.16,372.464,227.616,372.464,161.072,344.272z" data-original="#3E4347" class=""/><g>
	<path style="fill:#FFFFFF;" d="M225.632,362.448v23.2c0,7.072,5.712,12.768,12.768,12.768h14.464c2.992,0,5.44-2.448,5.44-5.568   V365.28C247.408,365.152,236.528,364.08,225.632,362.448z" data-original="#FFFFFF" class=""/>
	<path style="fill:#FFFFFF;" d="M268.896,398.432h14.464c7.072,0,12.768-5.712,12.768-12.768v-23.2   c-10.896,1.632-21.776,2.704-32.672,2.816v27.584C263.456,395.984,265.904,398.432,268.896,398.432z" data-original="#FFFFFF" class=""/>
</g></g> </svg>
