<?xml version="1.0" encoding="iso-8859-1"?>
<!-- Generator: Adobe Illustrator 19.0.0, SVG Export Plug-In . SVG Version: 6.00 Build 0)  -->
<svg version="1.1" id="Layer_1" xmlns="http://www.w3.org/2000/svg" xmlns:xlink="http://www.w3.org/1999/xlink" x="0px" y="0px"
	 viewBox="0 0 512 512" style="enable-background:new 0 0 512 512;" xml:space="preserve">
<path style="fill:#314E55;" d="M483.528,72.928c-0.272-1.157-0.563-2.305-0.93-3.394c-2.083-6.234-5.821-11.988-11.425-17.596
	c-5.935-5.935-13.176-11.116-22.804-16.307c-9.968-5.367-20.876-9.896-34.329-14.256c-16.085-5.209-33.24-9.369-50.985-12.364
	c-10.517-1.779-20.876-3.308-30.786-4.542c-8.48-1.062-17.378-1.901-26.439-2.495c-8.081-0.531-16.175-0.889-24.265-1.252
	l-10.418-0.467L269.478,0l-26.389,0.014L225.48,0.962c-7.428,0.395-14.86,0.785-22.278,1.284
	c-11.234,0.744-23.258,2.065-36.766,4.029c-30.159,4.388-54.552,10.163-76.766,18.185c-13.335,4.819-23.984,9.878-33.508,15.921
	c-6.765,4.292-12.182,8.716-16.561,13.526c-5.781,6.357-9.288,12.84-10.712,19.832l-0.989,2.259v6.162l3.725,22.201
	c1.897,12.105,3.793,24.211,5.781,36.294c2.459,15.009,5.055,30.001,7.645,44.992l19.796,112.824
	c0.808,4.723,2.641,9.27,5.445,13.508c3.385,5.132,7.75,9.791,13.743,14.664c8.208,6.661,17.627,12.391,29.642,18.031
	c14.392,6.756,30.186,12.214,48.286,16.683c14.315,3.539,29.084,6.166,45.141,8.026c15.772,1.842,32.219,2.768,49.071,2.768
	c4.941,0,9.914-0.082,14.919-0.24c27.782-0.889,53.218-4.202,77.76-10.123c21.375-5.154,39.683-11.697,55.976-20
	c9.587-4.891,17.568-10.014,24.406-15.667c4.152-3.439,7.604-6.906,10.545-10.594c4.36-5.467,7.164-11.774,8.33-18.753
	c1.552-9.297,3.212-18.571,4.868-27.845l15.472-88.255c2.024-11.72,4.038-23.453,6.012-35.178
	c1.833-10.912,3.671-21.829,5.431-32.746c0.921-5.667,1.779-11.343,2.636-17.024l0.948-6.293l0.622-13.063L483.528,72.928z
	 M380.968,76.471c-6.425,3.04-13.385,4.955-18.73,6.289c-9.887,2.464-20.558,4.374-33.585,6.016
	c-14.175,1.788-28.036,2.94-41.212,3.421c-6.806,0.254-13.616,0.449-20.486,0.644l-9.637,0.299l-10.59-0.29
	c-7.872-0.204-15.808-0.408-23.73-0.803c-20.613-1.044-38.807-3.004-55.627-5.998c-10.064-1.797-20.785-4.002-30.98-7.977
	c-2.473-0.962-5.114-2.223-8.054-3.847c-0.604-0.336-1.216-0.762-1.906-1.37c0.83-0.685,1.919-1.384,3.385-2.178
	c3.144-1.692,6.851-3.194,11.67-4.719c8.213-2.609,17.215-4.651,29.188-6.62c11.96-1.969,24.551-3.417,38.494-4.424
	c21.738-1.574,43.09-2.028,63.962-1.357c7.178,0.24,14.356,0.476,21.529,0.907c15.372,0.926,29.256,2.359,42.451,4.379
	c12.75,1.956,22.868,4.115,31.838,6.788c4.111,1.225,8.435,2.632,12.205,4.628c1.538,0.821,3.457,1.897,5.046,3.108
	C384.929,74.407,383.295,75.373,380.968,76.471z"/>
<path style="fill:#81A4E3;" d="M465.447,77.22c-0.141-0.585-0.268-1.18-0.458-1.751c-1.184-3.53-3.389-6.819-6.96-10.39h-0.005
	c-4.614-4.623-10.486-8.78-18.471-13.085c-8.952-4.819-18.88-8.934-31.244-12.94c-15.223-4.927-31.493-8.87-48.349-11.72
	c-10.254-1.733-20.345-3.221-29.992-4.424c-8.126-1.016-16.656-1.819-25.354-2.387c-7.954-0.526-15.917-0.88-23.88-1.234
	l-10.817-0.495c-0.635-0.036-1.243-0.113-1.842-0.209l-31.638,0.404l-9.977,0.535c-7.341,0.386-14.683,0.771-22.019,1.261
	c-10.749,0.717-22.305,1.987-35.327,3.884c-28.889,4.202-52.124,9.687-73.132,17.269c-12.019,4.347-21.511,8.839-29.864,14.138
	c-5.422,3.439-9.478,6.724-12.763,10.331c-3.671,4.038-5.685,7.695-6.343,11.497c-0.123,0.744-0.318,1.415-0.526,1.992v0.699
	c0.268,0.826,0.458,1.556,0.576,2.296l2.927,18.589c1.888,12.06,3.78,24.125,5.758,36.167c2.45,14.96,5.036,29.896,7.618,44.833
	l19.805,112.86c0.372,2.196,1.234,4.288,2.627,6.393c2.323,3.516,5.485,6.847,9.959,10.49c6.996,5.676,15.204,10.644,25.822,15.626
	c13.276,6.234,27.945,11.293,44.842,15.468c13.548,3.349,27.555,5.835,42.832,7.609c19.492,2.273,40.087,3.09,61.249,2.409
	c26.498-0.848,50.704-3.993,73.998-9.615c19.941-4.809,36.915-10.858,51.888-18.489c8.358-4.265,15.227-8.657,21.003-13.435
	c3.153-2.604,5.722-5.177,7.859-7.859c2.405-3.013,3.884-6.357,4.533-10.232c1.565-9.36,3.235-18.707,4.905-28.049l15.454-88.146
	c2.015-11.688,4.029-23.394,5.994-35.096c1.833-10.871,3.662-21.752,5.417-32.632c0.912-5.608,1.756-11.216,2.6-16.824l1.366-9.156
	L465.447,77.22z M380.968,76.471c-6.425,3.04-13.385,4.955-18.73,6.289c-9.887,2.464-20.558,4.374-33.585,6.016
	c-14.175,1.788-28.036,2.94-41.212,3.421c-6.806,0.254-13.616,0.449-20.486,0.644l-9.637,0.299l-10.59-0.29
	c-7.872-0.204-15.808-0.408-23.73-0.803c-20.613-1.044-38.807-3.004-55.627-5.998c-10.064-1.797-20.785-4.002-30.98-7.977
	c-2.473-0.962-5.114-2.223-8.054-3.847c-0.604-0.336-1.216-0.762-1.906-1.37c0.83-0.685,1.919-1.384,3.385-2.178
	c3.144-1.692,6.851-3.194,11.67-4.719c8.213-2.609,17.215-4.651,29.188-6.62c11.96-1.969,24.551-3.417,38.494-4.424
	c21.738-1.574,43.09-2.028,63.962-1.357c7.178,0.24,14.356,0.476,21.529,0.907c15.372,0.926,29.256,2.359,42.451,4.379
	c12.75,1.956,22.868,4.115,31.838,6.788c4.111,1.225,8.435,2.632,12.205,4.628c1.538,0.821,3.457,1.897,5.046,3.108
	C384.929,74.407,383.295,75.373,380.968,76.471z"/>
<path style="fill:#314E55;" d="M256.311,170.039c-0.005,0-0.014,0-0.014,0c-21.371,0-41.371,8.244-56.317,23.213
	c-14.537,14.56-22.528,33.812-22.5,54.207c0.054,42.51,35.436,77.061,78.894,77.057c0.027,0,0.059,0,0.086,0
	c20.98-0.023,40.726-8.067,55.613-22.65c14.941-14.633,23.149-34.057,23.117-54.683C335.123,204.64,299.741,170.039,256.311,170.039
	z"/>
<path style="fill:#D8D8D8;" d="M299.065,288.593c-11.393,11.162-26.529,17.319-42.623,17.337c-0.027,0-0.045,0-0.068,0
	c-33.217,0-60.269-26.23-60.309-58.499c-0.023-15.427,6.039-30.005,17.069-41.049c11.434-11.452,26.761-17.759,43.159-17.759
	c0.009,0,0.009,0,0.018,0c33.195,0,60.246,26.28,60.296,58.585C316.629,262.79,310.404,277.486,299.065,288.593z"/>
<path style="fill:#314E55;" d="M256.456,203.914h-0.009c-0.023,0-0.05,0-0.077,0c-12.037,0-23.276,4.605-31.647,12.977
	c-8.145,8.145-12.623,18.952-12.605,30.432c0.027,23.803,19.778,43.231,44.025,43.304c0.041,0,0.077,0,0.118,0
	c11.901,0,23.059-4.587,31.425-12.931c8.185-8.158,12.695-18.957,12.7-30.4C300.404,223.434,280.694,203.973,256.456,203.914z"/>
<path style="fill:#D8D8D8;" d="M274.564,264.532c-4.859,4.846-11.357,7.509-18.299,7.509c-0.023,0-0.05,0-0.072,0
	c-14.038-0.045-25.472-11.139-25.491-24.742c-0.009-6.506,2.536-12.641,7.16-17.269c4.864-4.859,11.434-7.532,18.512-7.532
	c0.009,0,0.023,0,0.036,0c14.011,0.032,25.4,11.153,25.391,24.787C281.796,253.761,279.228,259.886,274.564,264.532z"/>
<path style="fill:#314E55;" d="M416.653,347.742l-0.027-0.005c-4.773-0.835-9.369,0.29-13.998,3.43l-1.624,1.107
	c-2.545,1.738-5.086,3.48-7.718,5.055c-15.459,9.215-32.614,16.529-52.451,22.355c-21.312,6.28-43.998,10.077-67.424,11.298
	c-12.655,0.658-25.3,0.604-37.578-0.181c-11.96-0.753-23.889-2.21-35.459-4.338c-20.345-3.739-39.538-9.46-57.056-17.01
	c-13.675-5.885-24.279-11.702-33.34-18.285c-1.647-1.202-3.585-2.183-5.59-2.827c-4.75-1.552-9.841-1.044-13.961,1.366
	c-4.111,2.396-6.915,6.348-7.904,11.153c-0.535,2.632-0.576,5.318-0.118,7.741c2.368,12.714,4.805,25.427,7.282,38.122
	c1.915,9.81,3.861,19.615,5.808,29.415l2.119,10.694c1.107,5.563,3.289,10.803,6.479,15.577c3.181,4.76,7.173,9.097,12.201,13.258
	c7.242,5.998,15.899,11.189,26.461,15.871c15.631,6.937,33.363,12.065,54.207,15.676c13.92,2.414,28.304,3.929,41.906,4.406
	L271.198,512l1.892-0.295c11.343-0.463,22.954-1.547,34.502-3.221c15.363-2.232,29.207-5.327,42.333-9.46
	c13.467-4.242,24.814-9.183,34.687-15.114c7.264-4.36,13.135-8.961,17.94-14.052c6.751-7.137,10.826-14.678,12.45-23.036
	l7.641-38.549c2.545-13.013,5.05-26.03,7.496-39.057c0.431-2.296,0.49-4.809,0.181-7.251
	C429.412,354.633,424.049,349.048,416.653,347.742z"/>
<path style="fill:#81A4E3;" d="M404.403,404.707l-7.641,38.562c-0.948,4.868-3.398,9.256-7.718,13.825
	c-3.63,3.848-8.213,7.405-13.998,10.88c-8.607,5.168-18.653,9.528-30.704,13.326c-12.164,3.829-25.059,6.702-39.42,8.789
	c-10.921,1.588-21.883,2.613-32.709,3.054c-0.649,0.036-1.302,0.127-2.015,0.272H242.59c-0.726-0.145-1.447-0.245-2.146-0.268
	c-13.625-0.545-27.187-1.969-40.305-4.247c-19.324-3.349-35.627-8.04-49.846-14.351c-8.993-3.988-16.234-8.303-22.146-13.199
	c-3.621-2.995-6.434-6.03-8.603-9.27c-1.851-2.777-3.063-5.676-3.698-8.87l-2.119-10.69c-1.947-9.782-3.888-19.569-5.799-29.356
	c-2.269-11.624-4.501-23.258-6.634-35.368c9.696,6.765,20.799,12.754,34.669,18.725c18.798,8.099,39.338,14.229,61.053,18.217
	c12.291,2.26,24.959,3.811,37.65,4.61c12.981,0.821,26.339,0.894,39.706,0.19c24.878-1.293,49.007-5.34,71.707-12.024
	c21.352-6.275,39.905-14.197,56.739-24.233c2.958-1.77,5.812-3.712,8.666-5.658l0.05-0.036
	C409.203,379.961,406.821,392.338,404.403,404.707z"/>
<path style="fill:#314E55;" d="M398.5,59.407c-2.922-2.409-6.134-4.229-8.625-5.558c-5.218-2.763-10.59-4.533-15.617-6.03
	c-9.81-2.922-20.717-5.254-34.329-7.341c-13.762-2.11-28.208-3.603-44.148-4.56c-7.341-0.445-14.692-0.69-22.532-0.948
	c-21.039-0.672-43.041-0.2-65.419,1.407c-14.51,1.053-27.655,2.564-40.178,4.623c-12.89,2.124-22.695,4.356-31.784,7.246
	c-5.948,1.883-10.672,3.811-14.882,6.08c-2.536,1.375-5.826,3.339-8.762,6.388c-7.223,7.509-7.187,17.087,0.063,24.37
	c2.164,2.192,4.533,4.006,7.046,5.399c3.689,2.042,7.069,3.648,10.318,4.909c11.706,4.564,23.989,7.087,34.461,8.952
	c17.596,3.135,36.552,5.182,57.955,6.261c8.072,0.404,16.157,0.617,24.179,0.821l11.071,0.29l10.173-0.299
	c6.919-0.195,13.78-0.39,20.635-0.644c13.721-0.508,28.136-1.701,42.85-3.557c13.775-1.738,25.136-3.775,35.754-6.425
	c6.175-1.538,14.283-3.78,22.169-7.514c2.613-1.23,6.488-3.221,9.977-6.298c5.794-5.109,6.933-10.431,6.869-13.993
	C405.682,69.447,404.371,64.216,398.5,59.407z M380.968,76.471c-6.425,3.04-13.385,4.955-18.73,6.289
	c-9.887,2.464-20.558,4.374-33.585,6.016c-14.175,1.788-28.036,2.94-41.212,3.421c-6.806,0.254-13.616,0.449-20.486,0.644
	l-9.637,0.299l-10.59-0.29c-7.872-0.204-15.808-0.408-23.73-0.803c-20.613-1.044-38.807-3.004-55.627-5.998
	c-10.064-1.797-20.785-4.002-30.98-7.977c-2.473-0.962-5.114-2.223-8.054-3.847c-0.604-0.336-1.216-0.762-1.906-1.37
	c0.83-0.685,1.919-1.384,3.385-2.178c3.144-1.692,6.851-3.194,11.67-4.719c8.213-2.609,17.215-4.651,29.188-6.62
	c11.96-1.969,24.551-3.417,38.494-4.424c21.738-1.574,43.09-2.028,63.962-1.357c7.178,0.24,14.356,0.476,21.529,0.907
	c15.372,0.926,29.256,2.359,42.451,4.379c12.75,1.956,22.868,4.115,31.838,6.788c4.111,1.225,8.435,2.632,12.205,4.628
	c1.538,0.821,3.457,1.897,5.046,3.108C384.929,74.407,383.295,75.373,380.968,76.471z"/>
<g>
</g>
<g>
</g>
<g>
</g>
<g>
</g>
<g>
</g>
<g>
</g>
<g>
</g>
<g>
</g>
<g>
</g>
<g>
</g>
<g>
</g>
<g>
</g>
<g>
</g>
<g>
</g>
<g>
</g>
</svg>
