<?xml version="1.0"?>
<svg xmlns="http://www.w3.org/2000/svg" xmlns:xlink="http://www.w3.org/1999/xlink" version="1.1" id="Layer_1" x="0px" y="0px" viewBox="0 0 501.6 501.6" style="enable-background:new 0 0 501.6 501.6;" xml:space="preserve" width="512px" height="512px" class=""><g><path style="fill:#AADA20" d="M154.408,260.8c6,6,9.6,14.4,9.6,23.2c0,4.8-1.2,9.2-2.8,13.6c12-5.6,27.2-3.6,37.2,6.4  c6,6,9.6,14.4,9.6,23.2c0,4.8-1.2,9.6-3.2,14c12-5.6,26.8-3.6,36.8,6.4c8.8,8.8,11.6,21.2,8.4,32.4l244.8-245.6L367.208,6.8  l-245.2,245.6c3.2-0.8,6-1.2,9.2-1.2C140.008,251.2,148.408,254.4,154.408,260.8z" data-original="#DF5C4E" class="" data-old_color="#DF5C4E"/><path style="fill:#658115" d="M411.608,51.2l-244,244c10.8-2.8,22.4,0,30.8,8.4c6,6,9.6,14.4,9.6,23.2c0,2-0.4,3.6-0.4,5.2  l242.8-242.4L411.608,51.2z" data-original="#E36D60" class="active-path" data-old_color="#E36D60"/><path style="fill:#AADA20" d="M56.408,456c-0.4,0-0.4,0-0.8,0c-0.8,0-1.6-0.4-1.6-1.2c-0.4-0.8,0-2,0.8-2.4l43.2-19.6l-43.2-42.8  l-46.4,104l103.6-46.4l-11.2-11.2L56.408,456z" data-original="#DF5C4E" class="" data-old_color="#DF5C4E"/><g>
	<path style="fill:#CCCCCC;" d="M111.208,263.2L111.208,263.2L111.208,263.2C111.608,263.2,111.208,263.2,111.208,263.2z" data-original="#CCCCCC"/>
	<path style="fill:#CCCCCC;" d="M111.208,263.2L111.208,263.2L111.208,263.2L111.208,263.2L111.208,263.2L111.208,263.2z" data-original="#CCCCCC"/>
	<path style="fill:#CCCCCC;" d="M152.408,303.6L152.408,303.6C152.008,303.6,152.008,303.6,152.408,303.6   C152.008,303.6,152.008,304,152.408,303.6L152.408,303.6C152.008,304,152.008,303.6,152.408,303.6z" data-original="#CCCCCC"/>
	<path style="fill:#CCCCCC;" d="M152.408,303.6l0.4-0.4C152.408,303.2,152.408,303.6,152.408,303.6L152.408,303.6z" data-original="#CCCCCC"/>
	<path style="fill:#CCCCCC;" d="M152.008,304L152.008,304L152.008,304L152.008,304L152.008,304z" data-original="#CCCCCC"/>
</g><path style="fill:#F0B551;" d="M238.408,350c-11.2-11.2-29.2-11.2-40.4-0.4l0,0l0,0c-0.8,0.8-2,0.8-2.8,0s-0.8-2,0-2.8l0,0l0,0l0,0  l0,0c5.6-5.6,8.4-12.8,8.4-20.4s-3.2-14.8-8.4-20.4c-10.8-11.2-28.8-11.2-40-0.4l-0.4,0.4l0,0l0,0l0,0c-0.4,0.4-0.8,0.4-1.2,0.4  s-0.8,0-1.2-0.4c-0.8-0.8-0.8-1.6-0.4-2.4v-0.4l0,0l0,0l0,0l0.4-0.4c4.8-5.2,7.6-12,7.6-19.2c0-7.6-2.8-14.8-8.4-20.4  c-5.6-5.6-12.8-8.4-20.4-8.4c-7.2,0-14.4,2.8-19.6,8c0,0,0,0-0.4,0.4v0.4l0,0L56.408,386l59.6,59.6l122.4-54.8h0.4l0.4-0.8  C249.608,378.8,249.608,361.2,238.408,350z" data-original="#F0B551" class=""/><path d="M240.008,396c-1.2,0-2-0.4-2.8-1.2c-1.6-1.6-1.6-4,0-5.6l254.4-255.2L367.208,9.6l-254,254.8c-1.6,1.6-4,1.6-5.6,0  s-1.6-4,0-5.6l256.8-257.6c0.8-0.8,1.6-1.2,2.8-1.2l0,0c1.2,0,2,0.4,2.8,1.2l130,130c1.6,1.6,1.6,4,0,5.6l-257.2,258  C242.008,395.6,241.208,396,240.008,396z" data-original="#000000" class="" style="fill:#000000"/><path d="M4.408,501.6c-1.2,0-2-0.4-2.8-1.2c-1.2-1.2-1.6-2.8-0.8-4.4l105.6-235.6c0.8-2,3.2-2.8,5.2-2s2.8,3.2,2,5.2l-101.2,226  l226-101.2c2-0.8,4.4,0,5.2,2s0,4.4-2,5.2L6.008,501.2C5.608,501.6,4.808,501.6,4.408,501.6z" data-original="#000000" class="" style="fill:#000000"/><path d="M196.808,352.8c-1.2,0-2-0.4-2.8-1.2c-1.6-1.6-1.6-4,0-5.6c10.4-10.4,10.4-27.6,0-38s-27.6-10.4-38,0c-1.6,1.6-4,1.6-5.6,0  s-1.6-4,0-5.6c13.6-13.6,35.6-13.6,49.2,0c13.6,13.6,13.6,35.6,0,49.2C198.808,352.4,198.008,352.8,196.808,352.8z" data-original="#000000" class="" style="fill:#000000"/><path d="M153.208,309.6c-1.2,0-2-0.4-2.8-1.2c-1.6-1.6-1.6-4,0-5.6c10.4-10.4,10.4-27.6,0-38s-27.6-10.4-38,0c-1.6,1.6-4,1.6-5.6,0  s-1.6-4,0-5.6c13.6-13.6,35.6-13.6,49.2,0c13.6,13.6,13.6,35.6,0,49.2C155.208,309.2,154.408,309.6,153.208,309.6z" data-original="#000000" class="" style="fill:#000000"/><path d="M240.408,396c-1.2,0-2-0.4-2.8-1.2c-1.6-1.6-1.6-4,0-5.6c10.4-10.4,10.4-26.8-0.4-37.6c-10.4-10.4-27.6-10.4-38,0  c-1.6,1.6-4,1.6-5.6,0s-1.6-4,0-5.6c13.6-13.6,35.6-13.6,49.2,0c13.6,13.6,13.6,35.6,0.4,48.8  C242.408,395.6,241.608,396,240.408,396z" data-original="#000000" class="" style="fill:#000000"/><path d="M184.008,278.4c-1.2,0-2-0.4-2.8-1.2c-1.6-1.6-1.6-4,0-5.6l226-226.4c1.6-1.6,4-1.6,5.6,0s1.6,4,0,5.6l-226,226.4  C186.008,278,185.208,278.4,184.008,278.4z" data-original="#000000" class="" style="fill:#000000"/><path d="M227.608,322c-1.2,0-2-0.4-2.8-1.2c-1.6-1.6-1.6-4,0-5.6l226-226.8c1.6-1.6,4-1.6,5.6,0s1.6,4,0,5.6l-226,226.8  C229.608,321.6,228.808,322,227.608,322z" data-original="#000000" class="" style="fill:#000000"/><path d="M115.208,451.6c-1.2,0-2-0.4-2.8-1.2l-60.8-60.4c-1.6-1.6-1.6-4,0-5.6s4-1.6,5.6,0l60.8,60.4c1.6,1.6,1.6,4,0,5.6  C117.208,451.2,116.408,451.6,115.208,451.6z" data-original="#000000" class="" style="fill:#000000"/><path d="M55.608,458.4c-1.6,0-2.8-0.8-3.6-2.4c-0.8-2,0-4.4,2-5.2l45.6-20.8c2-0.8,4.4,0,5.2,2s0,4.4-2,5.2l-45.6,20.8  C56.808,458.4,56.008,458.4,55.608,458.4z" data-original="#000000" class="" style="fill:#000000"/></g> </svg>
