<svg height="512" viewBox="0 0 58 58" width="512" xmlns="http://www.w3.org/2000/svg"><g id="Page-1" fill="none" fill-rule="evenodd"><g id="056---Listen-To-Podcast" fill-rule="nonzero"><path id="Shape" d="m56 27h-2v-2c0-.5522847-.4477153-1-1-1 0-13.254834-10.745166-24-24-24s-24 10.745166-24 24c-.55228475 0-1 .4477153-1 1v2h-2c-1.1045695 0-2 .8954305-2 2v12c0 1.1045695.8954305 2 2 2h2v2c0 .5522847.44771525 1 1 1h5c1.1045695 0 2-.8954305 2-2v-18c0-1.1045695-.8954305-2-2-2h-1c0-11.045695 8.954305-20 20-20s20 8.954305 20 20h-1c-1.1045695 0-2 .8954305-2 2v18c0 1.1045695.8954305 2 2 2h5c.5522847 0 1-.4477153 1-1v-2h2c1.1045695 0 2-.8954305 2-2v-12c0-1.1045695-.8954305-2-2-2z" fill="#95a5a5"/><path id="Shape" d="m35.36 19.64c-2.5738418-2.5706436-6.4421049-3.3390983-9.8030822-1.9474437-3.3609772 1.3916546-5.5537182 4.6697438-5.5569178 8.3074437v14c-.0023509 4.2018973 2.9031659 7.8462455 7 8.78v5.22h-5c-1.1045695 0-2 .8954305-2 2v1c0 .5522847.4477153 1 1 1h16c.5522847 0 1-.4477153 1-1v-1c0-1.1045695-.8954305-2-2-2h-5v-5.22c4.0968341-.9337545 7.0023509-4.5781027 7-8.78v-14c-.0021006-2.3861442-.9516902-4.6737917-2.64-6.36z" fill="#bdc3c7"/><path id="Shape" d="m12 26v18c0 1.1045695-.8954305 2-2 2h-5c-.55228475 0-1-.4477153-1-1v-20c0-.5522847.44771525-1 1-1h5c1.1045695 0 2 .8954305 2 2z" fill="#3b97d3"/><path id="Shape" d="m4 27v16h-2c-1.1045695 0-2-.8954305-2-2v-12c0-1.1045695.8954305-2 2-2z" fill="#2980ba"/><path id="Shape" d="m54 25v20c0 .5522847-.4477153 1-1 1h-5c-1.1045695 0-2-.8954305-2-2v-18c0-1.1045695.8954305-2 2-2h5c.5522847 0 1 .4477153 1 1z" fill="#3b97d3"/><path id="Shape" d="m58 29v12c0 1.1045695-.8954305 2-2 2h-2v-16h2c1.1045695 0 2 .8954305 2 2z" fill="#2980ba"/><path id="Shape" d="m42.05 16.13c-.2974322.000483-.5796435-.1314599-.77-.36-3.0399666-3.6396197-7.5378245-5.7432169-12.28-5.7432169s-9.2400334 2.1035972-12.28 5.7432169c-.22865.2750945-.5866924.407309-.9392563.3468396-.3525638-.0604695-.6460861-.3044361-.77-.64-.1239138-.335564-.0593937-.7117451.1692563-.9868396 3.419936-4.0981495 8.4823234-6.46710791 13.82-6.46710791s10.400064 2.36895841 13.82 6.46710791c.1700589.2040826.251926.4674438.2275369.7319715s-.1530298.5084803-.3575369.6780285c-.1799121.1490812-.4063478.2304565-.64.23z" fill="#fac176"/><path id="Shape" d="m39.29 19.07c-.3094966-.0007439-.6012074-.144753-.79-.39-2.272144-2.9442198-5.7809855-4.6685609-9.5-4.6685609s-7.227856 1.7243411-9.5 4.6685609c-.3480706.3974888-.9452983.4556194-1.3634877.1327136-.4181894-.3229057-.513025-.9154143-.2165123-1.3527136 2.6510014-3.4323733 6.7430662-5.4423368 11.08-5.4423368s8.4289986 2.0099635 11.08 5.4423368c.3358001.436601.2553218 1.0625433-.18 1.4-.1745498.1354677-.3890506.2093122-.61.21z" fill="#f18d46"/><path id="Shape" d="m38.0000014 39-.0000014 1c.0023509 4.2018973-2.9031659 7.8462455-7 8.78-1.3171967.293363-2.6828033.293363-4 0-4.0968341-.9337545-7.0023509-4.5781027-7-8.78l-.0000014-1z" fill="#3b97d3"/><path id="Shape" d="m38 56v1c0 .5522847-.4477153 1-1 1h-16c-.5522847 0-1-.4477153-1-1v-1c0-1.1045695.8954305-2 2-2h14c1.1045695 0 2 .8954305 2 2z" fill="#2980ba"/><g fill="#7f8c8d"><path id="Shape" d="m27 27c0 .5522847-.4477153 1-1 1h-6v-2h6c.5522847 0 1 .4477153 1 1z"/><path id="Shape" d="m27 31c0 .5522847-.4477153 1-1 1h-6v-2h6c.5522847 0 1 .4477153 1 1z"/><path id="Shape" d="m27 35c0 .5522847-.4477153 1-1 1h-6v-2h6c.5522847 0 1 .4477153 1 1z"/><path id="Shape" d="m38 26v2h-6c-.5522847 0-1-.4477153-1-1s.4477153-1 1-1z"/><path id="Shape" d="m38 30v2h-6c-.5522847 0-1-.4477153-1-1s.4477153-1 1-1z"/><path id="Shape" d="m38 34v2h-6c-.5522847 0-1-.4477153-1-1s.4477153-1 1-1z"/></g></g></g></svg>