<svg height="512pt" viewBox="0 -25 512 512" width="512pt" xmlns="http://www.w3.org/2000/svg"><path d="m487.25 231.25c0 127.71875-103.535156 231.253906-231.25 231.253906s-231.25-103.535156-231.25-231.253906c0-127.714844 103.535156-231.25 231.25-231.25s231.25 103.535156 231.25 231.25zm0 0" fill="#80e0dc"/><path d="m487.25 231.25c0 127.71875-103.53125 231.253906-231.25 231.253906-23.644531 0-46.46875-3.550781-67.957031-10.148437 9.921875 1.296875 20.035156 1.96875 30.316406 1.96875 127.71875 0 231.253906-103.535157 231.253906-231.25 0-104.070313-68.742187-192.074219-163.292969-221.105469 113.390626 14.851562 200.929688 111.847656 200.929688 229.28125zm0 0" fill="#00a8b0"/><path d="m376.550781 343.292969c22.253907-52.972657 28.109375-113.03125 15.859375-171.894531-3.753906-18.066407-9.097656-35.484376-15.964844-52.160157 10.28125-2.152343 20.367188-4.597656 30.234376-7.332031 10.964843-3.039062 25.171874-7.269531 38.828124-13.230469-3.054687-4.351562-6.25-8.597656-9.601562-12.722656-11.726562 4.824219-23.8125 8.402344-33.359375 11.054687-10.59375 2.9375-21.441406 5.527344-32.535156 7.753907-6.488281-13.582031-14.035157-26.617188-22.636719-39.042969-17.128906-24.777344-37.742188-46.144531-61.492188-63.800781h-.007812c-3.878906-.503907-7.777344-.90625-11.714844-1.214844-5.734375-.445313-11.539062-.6835938-17.386718-.6914062h-.011719c-.019531-.0117188-.03125-.0117188-.050781-.0117188h-1.421876c-.023437 0-.03125 0-.054687.0117188h-.007813c-5.847656.0078124-11.652343.2460932-17.386718.6914062-3.9375.308594-7.835938.710937-11.714844 1.214844h-.011719c-23.746093 17.65625-44.359375 39.023437-61.492187 63.800781-8.773438 12.683594-16.46875 26-23.035156 39.890625-22.046876-4.34375-44.230469-10.601563-65.511719-19.636719-3.34375 4.125-6.539063 8.363282-9.582031 12.714844 22.359374 9.847656 45.621093 16.675781 68.710937 21.417969-6.703125 16.410156-11.921875 33.546875-15.613281 51.292969-12.1875 58.542968-6.453125 118.261718 15.5 171.03125-23.058594 4.730468-46.273438 11.558593-68.597656 21.386718 3.042968 4.351563 6.238281 8.589844 9.578124 12.714844 21.296876-9.035156 43.488282-15.304688 65.535157-19.636719 7.105469 14.664063 15.519531 28.699219 25.214843 41.921875 17.777344 24.253906 38.152344 45.25 59.882813 61.851563 3.722656.464843 7.476563.84375 11.25 1.144531 5.691406.433594 11.457031.667969 17.261719.679688h.011718c.019532.011718.03125.011718.050782.011718h1.445312c.019532 0 .03125 0 .050782-.011718h.011718c5.804688-.007813 11.570313-.246094 17.261719-.679688 3.773437-.300781 7.527344-.679688 11.25-1.144531 21.726563-16.605469 42.105469-37.597657 59.882813-61.851563 9.507812-12.972656 17.789062-26.71875 24.8125-41.085937 11.09375 2.238281 21.953124 4.828125 32.554687 7.765625 9.546875 2.648437 21.632813 6.230468 33.359375 11.054687 3.351562-4.125 6.546875-8.371093 9.601562-12.726562-13.652343-5.957031-27.863281-10.1875-38.824218-13.230469-9.839844-2.734375-19.882813-5.167969-30.132813-7.300781zm.71875-168.738281c11.839844 56.890624 5.847657 114.898437-16.25 165.738281-14.449219-2.558594-29.277343-4.550781-44.433593-5.972657 8.238281-49.40625 10.382812-104.585937 5.78125-158.753906-1.378907-16.304687-3.347657-32.144531-5.867188-47.375 15.160156-1.421875 29.988281-3.414062 44.4375-5.972656 7.082031 16.675781 12.550781 34.15625 16.332031 52.335938zm-121.269531 286.875c-11.3125-16.777344-22.027344-40.652344-31.164062-69.527344-4.328126-13.664063-8.042969-28.265625-11.125-43.578125 12.351562-.667969 24.222656-.988281 35.390624-1.144531 16.738282-.226563 33.140626.175781 49.179688 1.21875-3.085938 15.28125-6.796875 29.863281-11.117188 43.503906-9.136718 28.875-19.851562 52.75-31.164062 69.527344zm-7.113281-129.71875c-11.964844.167968-24.71875.515624-38.023438 1.28125-8.199219-48.40625-10.351562-102.722657-5.824219-156.117188 1.390626-16.34375 3.371094-32.183594 5.90625-47.363281 13.273438.761719 26.007813 1.113281 37.941407 1.277343 3.144531.042969 6.277343.0625 9.390625.0625 14.511718 0 28.773437-.472656 42.765625-1.421874 2.539062 15.199218 4.527343 31.070312 5.921875 47.445312 4.523437 53.425781 2.371094 107.773438-5.847656 156.199219-17.027344-1.15625-34.453126-1.609375-52.230469-1.363281zm7.113281-330.679688c18.429688 26.933594 33.019531 66.359375 42.25 113.074219-16.015625 1.039062-32.421875 1.441406-49.148438 1.214843-11.160156-.15625-23.015624-.472656-35.363281-1.144531 9.222657-46.753906 23.824219-86.199219 42.261719-113.144531zm78.652344 73.484375c7.332031 10.601563 13.859375 21.667969 19.570312 33.164063-13.175781 2.226562-26.664062 3.96875-40.464844 5.21875-6.847656-35.15625-16.671874-66.554688-28.863281-92.171876 18.953125 15.335938 35.617188 33.332032 49.757813 53.789063zm-157.304688 0c14.140625-20.457031 30.804688-38.453125 49.757813-53.789063-12.21875 25.679688-22.058594 57.160157-28.90625 92.417969-13.261719-1.03125-26.945313-2.535156-40.785157-4.730469 5.796876-11.757812 12.449219-23.070312 19.933594-33.898437zm-42.617187 100.039063c3.722656-17.902344 9.082031-35.121094 16.011719-51.5625 15.191406 2.558593 30.195312 4.28125 44.714843 5.457031-2.496093 15.148437-4.453125 30.90625-5.824219 47.117187-4.589843 54.066406-2.464843 109.164063 5.742188 158.496094-14.519531 1.175781-29.53125 2.898438-44.722656 5.457031-21.832032-50.65625-27.699219-108.363281-15.921875-164.964843zm44.566406 215.113281c-8.257813-11.273438-15.550781-23.183594-21.828125-35.578125 13.804688-2.195313 27.449219-3.703125 40.679688-4.734375 3.269531 16.613281 7.261718 32.445312 11.941406 47.21875 4.144531 13.078125 9.859375 29.09375 17.128906 44.703125-17.253906-14.457032-33.460938-31.882813-47.921875-51.609375zm153.40625 0c-14.460937 19.726562-30.667969 37.152343-47.921875 51.609375 7.269531-15.613282 12.984375-31.625 17.128906-44.703125 4.660156-14.703125 8.628906-30.449219 11.898438-46.96875 13.757812 1.257812 27.214844 2.988281 40.351562 5.207031-6.195312 12.136719-13.351562 23.800781-21.457031 34.855469zm0 0" fill="#00a8b0"/><path d="m500.578125 289.675781h-489.15625c-6.308594 0-11.421875-5.113281-11.421875-11.421875v-69.613281c0-6.304687 5.113281-11.417969 11.421875-11.417969h489.15625c6.308594 0 11.421875 5.113282 11.421875 11.417969v69.613281c0 6.308594-5.113281 11.421875-11.421875 11.421875zm0 0" fill="#e7e7e7"/><g fill="#5a5a5a"><path d="m57.007812 257.585938c0 1.105468-1.660156 2.269531-3.601562 2.269531-2.105469 0-3.546875-1.164063-3.546875-2.269531v-37.1875c0-1.332032 1.441406-2.21875 3.546875-2.21875 1.9375 0 3.601562.886718 3.601562 2.21875v17.011718c1-2.160156 3.492188-4.210937 6.984376-4.210937 5.097656 0 9.53125 5.097656 9.53125 11.25v13.132812c0 1.496094-1.828126 2.273438-3.601563 2.273438-1.664063 0-3.546875-.777344-3.546875-2.273438v-13.132812c0-2.496094-2.21875-4.988281-4.824219-4.988281-2.269531 0-4.542969 1.882812-4.542969 4.988281zm0 0"/><path d="m89.265625 250.878906c0 2.160156.777344 2.9375 3.105469 2.9375h2.160156c2.050781 0 3.046875 1.496094 3.046875 2.992188 0 1.550781-.996094 3.046875-3.046875 3.046875h-2.160156c-6.652344 0-10.253906-2.714844-10.253906-8.976563v-26.878906c0-1.328125 1.886718-2.21875 3.546874-2.21875 1.828126 0 3.601563.890625 3.601563 2.21875v9.53125h6.542969c1.164062 0 1.828125 1.332031 1.828125 2.605469 0 1.328125-.664063 2.601562-1.828125 2.601562h-6.542969zm0 0"/><path d="m111.824219 250.878906c0 2.160156.773437 2.9375 3.105469 2.9375h2.160156c2.050781 0 3.046875 1.496094 3.046875 2.992188 0 1.550781-.996094 3.046875-3.046875 3.046875h-2.160156c-6.652344 0-10.253907-2.714844-10.253907-8.976563v-26.878906c0-1.328125 1.882813-2.21875 3.546875-2.21875 1.828125 0 3.601563.890625 3.601563 2.21875v9.53125h6.539062c1.164063 0 1.828125 1.332031 1.828125 2.605469 0 1.328125-.664062 2.601562-1.828125 2.601562h-6.539062zm0 0"/><path d="m134.050781 235.75v1.660156c1.273438-2.160156 3.933594-4.210937 7.480469-4.210937 5.539062 0 9.917969 5.097656 9.917969 11.25v4.542969c0 5.929687-4.542969 11.363281-9.695313 11.363281-3.328125 0-6.207031-2.109375-7.261718-4.378907v13.855469c0 1.164063-1.664063 2.269531-3.65625 2.269531-2.050782 0-3.492188-1.105468-3.492188-2.269531v-34.085937c0-1.328125 1.496094-2.214844 3.378906-2.214844 1.941406 0 3.328125.886719 3.328125 2.21875zm10.25 8.699219c0-2.496094-2.269531-4.988281-5.042969-4.988281-2.328124 0-4.765624 1.882812-4.765624 4.988281v5.542969c0 1.164062 2.050781 4.101562 4.875 4.101562 2.605468 0 4.933593-2.550781 4.933593-5.101562zm0 0"/><path d="m171.792969 252.539062c0-4.875-13.132813-1.828124-13.132813-11.082031 0-3.933593 2.492188-8.257812 9.917969-8.257812 4.488281 0 8.8125 1.550781 8.8125 3.601562 0 1-.941406 3.4375-2.605469 3.4375-1.328125 0-3.046875-1.605469-6.09375-1.605469-2.773437 0-3.878906 1.382813-3.878906 2.492188 0 4.046875 13.300781 1.273438 13.300781 11.140625 0 4.929687-3.660156 8.089844-10.199219 8.089844-5.652343 0-10.03125-2.328125-10.03125-4.765625 0-1.164063 1-3.160156 2.382813-3.160156 1.609375 0 2.828125 2.496093 7.484375 2.496093 3.269531-.003906 4.042969-1.277343 4.042969-2.386719zm0 0"/><path d="m192.800781 240.238281c0 1.992188-1.71875 3.769531-3.714843 3.769531-2.160157 0-3.769532-1.773437-3.769532-3.769531 0-2.050781 1.609375-3.769531 3.769532-3.769531 1.996093 0 3.714843 1.71875 3.714843 3.769531zm0 16.183594c0 1.992187-1.71875 3.765625-3.714843 3.765625-2.160157 0-3.769532-1.773438-3.769532-3.765625 0-2.050781 1.609375-3.769531 3.769532-3.769531 1.996093 0 3.714843 1.71875 3.714843 3.769531zm0 0"/><path d="m224.445312 219.621094c0 .332031-.054687.664062-.222656.996094l-19.894531 40.238281c-.390625.773437-1.273437 1.21875-2.164063 1.21875-1.605468 0-2.65625-1.273438-2.65625-2.4375 0-.335938.109376-.667969.273438-.945313l19.898438-40.398437c.386718-.777344 1.164062-1.164063 1.992187-1.164063 1.332031 0 2.773437.996094 2.773437 2.492188zm0 0"/><path d="m241.183594 219.621094c0 .332031-.054688.664062-.21875.996094l-19.898438 40.238281c-.386718.773437-1.273437 1.21875-2.160156 1.21875-1.605469 0-2.660156-1.273438-2.660156-2.4375 0-.335938.109375-.667969.277344-.945313l19.894531-40.398437c.390625-.777344 1.164062-1.164063 1.996093-1.164063 1.328126 0 2.769532.996094 2.769532 2.492188zm0 0"/><path d="m273.222656 259.191406c-.390625.941406-1.609375 1.273438-2.828125 1.273438-1.386719 0-2.605469-.441406-2.9375-1.273438l-4.269531-12.082031-4.210938 12.027344c-.332031.886719-1.660156 1.328125-3.046874 1.328125-1.164063 0-2.382813-.332032-2.773438-1.328125l-8.53125-21.894531c-.222656-.441407-.277344-.773438-.277344-1.050782 0-1.71875 2.769532-2.9375 4.65625-2.9375.941406 0 1.769532.386719 2.050782 1.164063l5.539062 15.738281 4.15625-13.6875c.390625-1.277344 1.332031-1.441406 2.4375-1.441406 1.054688 0 2.050781.164062 2.441406 1.441406l4.101563 13.742188 5.59375-15.792969c.277343-.722657 1.054687-1.164063 2.054687-1.164063 1.769532 0 4.597656 1.21875 4.597656 2.992188 0 .332031-.054687.71875-.21875.996094zm0 0"/><path d="m314.957031 259.191406c-.390625.941406-1.609375 1.273438-2.828125 1.273438-1.386718 0-2.601562-.441406-2.9375-1.273438l-4.265625-12.082031-4.214843 12.027344c-.332032.886719-1.660157 1.328125-3.046876 1.328125-1.164062 0-2.382812-.332032-2.769531-1.328125l-8.535156-21.894531c-.222656-.441407-.277344-.773438-.277344-1.050782 0-1.71875 2.769531-2.9375 4.652344-2.9375.945313 0 1.773437.386719 2.050781 1.164063l5.542969 15.738281 4.15625-13.6875c.390625-1.277344 1.332031-1.441406 2.4375-1.441406 1.054687 0 2.050781.164062 2.4375 1.441406l4.105469 13.742188 5.597656-15.792969c.273438-.722657 1.050781-1.164063 2.046875-1.164063 1.773437 0 4.601563 1.21875 4.601563 2.992188 0 .332031-.054688.71875-.222657.996094zm0 0"/><path d="m356.691406 259.191406c-.386718.941406-1.605468 1.273438-2.824218 1.273438-1.386719 0-2.605469-.441406-2.9375-1.273438l-4.269532-12.082031-4.210937 12.027344c-.332031.886719-1.664063 1.328125-3.050781 1.328125-1.164063 0-2.382813-.332032-2.769532-1.328125l-8.535156-21.894531c-.222656-.441407-.277344-.773438-.277344-1.050782 0-1.71875 2.773438-2.9375 4.65625-2.9375.941406 0 1.773438.386719 2.050782 1.164063l5.542968 15.738281 4.15625-13.6875c.386719-1.277344 1.328125-1.441406 2.4375-1.441406 1.054688 0 2.050782.164062 2.4375 1.441406l4.101563 13.742188 5.597656-15.792969c.277344-.722657 1.054687-1.164063 2.050781-1.164063 1.773438 0 4.601563 1.21875 4.601563 2.992188 0 .332031-.058594.71875-.222657.996094zm0 0"/></g><path d="m500.578125 290.03125h-89.894531v-93.84375h89.894531c6.308594 0 11.421875 5.113281 11.421875 11.421875v71c0 6.308594-5.113281 11.421875-11.421875 11.421875zm0 0" fill="#c9f0ff"/><path d="m464.8125 221.601562 4.628906 9.378907c.566406 1.140625 1.65625 1.933593 2.914063 2.117187l10.355469 1.503906c3.171874.460938 4.441406 4.363282 2.144531 6.601563l-7.492188 7.304687c-.914062.886719-1.328125 2.167969-1.113281 3.425782l1.765625 10.308594c.542969 3.164062-2.773437 5.574218-5.613281 4.082031l-9.261719-4.871094c-1.128906-.589844-2.476563-.589844-3.601563 0l-9.261718 4.871094c-2.835938 1.492187-6.15625-.917969-5.613282-4.082031l1.769532-10.308594c.214844-1.257813-.203125-2.539063-1.113282-3.425782l-7.492187-7.304687c-2.296875-2.238281-1.03125-6.140625 2.144531-6.601563l10.351563-1.503906c1.261719-.183594 2.351562-.976562 2.914062-2.117187l4.628907-9.378907c1.421874-2.878906 5.523437-2.878906 6.945312 0zm0 0" fill="#ffd86e"/><path d="m500.578125 289.675781h-13.933594v-92.453125h13.933594c6.308594 0 11.421875 5.113282 11.421875 11.417969v69.613281c0 6.308594-5.113281 11.421875-11.421875 11.421875zm0 0" fill="#9ae7fd"/></svg>